# File created by Blade
# Date/Time:  Thu Sep 25 19:26:26 2014
# Frame Rate: 120.000 fps
#------------------------------------------------------
:FULLY-SPECIFIED
:DEGREES
409
root -3.455033 31.718267 -11.662035 109.523351 -25.603883 -7.908068
Spine 41.543841 8.089662 18.604978
Head 7.673162 -15.193872 14.312222
LeftShoulder 1.288007 -15.351931 50.126224
LeftArm 55.799434 -44.875437 -26.754063
LeftForeArm 47.229697 -0.000000 46.417605
LeftHand -34.082960 -0.000000 53.720969
LeftHandThumb1 -26.253704 0.000000 33.147579
RightShoulder 2.849421 67.307439 -44.903185
RightArm 14.607295 8.981861 44.576244
RightForeArm -32.735079 -0.000000 43.185965
RightHand -9.180956 -0.000000 -53.551171
RightHandThumb1 -24.326973 -0.000000 -32.862282
LeftUpLeg -106.051002 21.182464 -27.691307
LeftLeg -1.188217 -0.000000 0.000000
LeftFoot -9.094987 19.657373 -38.916598
LeftToeBase 10.895209 -0.000000 -0.000000
RightUpLeg -117.315536 0.930811 5.636926
RightLeg 0.235547 -0.000000 -0.000000
RightFoot 6.931224 6.862666 5.126356
RightToeBase -0.129394 -0.000000 0.000000
410
root -3.451723 31.718723 -11.658104 109.522122 -25.624156 -7.896049
Spine 41.528323 8.090943 18.599494
Head 7.637407 -15.185012 14.325164
LeftShoulder 1.255108 -15.366134 50.119721
LeftArm 55.855512 -44.826584 -26.745496
LeftForeArm 47.214063 -0.000000 46.365535
LeftHand -33.998794 -0.000000 53.683648
LeftHandThumb1 -26.253704 0.000000 33.147579
RightShoulder 2.778212 67.327116 -44.961647
RightArm 14.602165 8.945095 44.593401
RightForeArm -32.734486 -0.000000 43.132239
RightHand -9.122916 0.000000 -53.543336
RightHandThumb1 -24.326973 -0.000000 -32.862282
LeftUpLeg -106.038237 21.161868 -27.698325
LeftLeg -1.181621 -0.000000 0.000000
LeftFoot -9.102675 19.648652 -38.923017
LeftToeBase 10.892886 -0.000000 -0.000000
RightUpLeg -117.327074 0.902388 5.616668
RightLeg 0.253544 -0.000000 -0.000000
RightFoot 6.913575 6.849545 5.144160
RightToeBase -0.115362 -0.000000 0.000000
411
root -3.447283 31.719390 -11.651434 109.513104 -25.672449 -7.885697
Spine 41.516526 8.108663 18.594025
Head 7.641973 -15.218820 14.327194
LeftShoulder 1.299877 -15.425015 50.095598
LeftArm 55.976703 -44.889898 -26.859391
LeftForeArm 47.466064 -0.000000 46.316020
LeftHand -33.981850 0.000000 54.479739
LeftHandThumb1 -26.253704 0.000000 33.147579
RightShoulder 2.744354 67.306525 -44.989710
RightArm 14.581135 8.915632 44.568716
RightForeArm -32.736507 -0.000000 43.108293
RightHand -9.168035 -0.000000 -53.496848
RightHandThumb1 -24.326973 -0.000000 -32.862282
LeftUpLeg -106.000309 21.130854 -27.737481
LeftLeg -1.195773 -0.000000 0.000000
LeftFoot -9.095937 19.650113 -38.881474
LeftToeBase 10.847666 -0.000000 -0.000000
RightUpLeg -117.330806 0.819525 5.541010
RightLeg 0.262268 -0.000000 -0.000000
RightFoot 6.956092 6.906384 5.382625
RightToeBase -0.128266 -0.000000 0.000000
412
root -3.443975 31.719268 -11.646187 109.499494 -25.712795 -7.874893
Spine 41.506971 8.102737 18.576252
Head 7.672120 -15.223965 14.299522
LeftShoulder 1.326689 -15.442393 50.066267
LeftArm 56.025446 -44.921777 -26.866684
LeftForeArm 47.566185 -0.000000 46.261433
LeftHand -33.750079 -0.000000 54.824098
LeftHandThumb1 -26.253704 0.000000 33.147579
RightShoulder 2.765628 67.317923 -44.972793
RightArm 14.558797 8.897867 44.560339
RightForeArm -32.727920 -0.000000 43.068802
RightHand -9.129887 -0.000000 -53.524242
RightHandThumb1 -24.326973 -0.000000 -32.862282
LeftUpLeg -105.968468 21.107492 -27.768072
LeftLeg -1.196861 -0.000000 0.000000
LeftFoot -9.116446 19.638231 -38.888950
LeftToeBase 10.872308 -0.000000 -0.000000
RightUpLeg -117.329720 0.792413 5.518789
RightLeg 0.277647 -0.000000 -0.000000
RightFoot 6.946005 6.916085 5.382311
RightToeBase -0.133000 -0.000000 0.000000
413
root -3.437789 31.719387 -11.639917 109.488715 -25.739120 -7.827757
Spine 41.461520 8.060673 18.593435
Head 7.705422 -15.234329 14.260259
LeftShoulder 1.328396 -15.404231 50.023118
LeftArm 56.064680 -44.913701 -26.802795
LeftForeArm 47.513285 -0.000000 46.204938
LeftHand -33.736829 0.000000 54.809868
LeftHandThumb1 -26.253704 0.000000 33.147579
RightShoulder 2.790750 67.315785 -44.965040
RightArm 14.549941 8.875039 44.549915
RightForeArm -32.719536 -0.000000 43.020884
RightHand -9.111901 -0.000000 -53.530153
RightHandThumb1 -24.326973 -0.000000 -32.862282
LeftUpLeg -105.932312 21.048970 -27.755383
LeftLeg -1.199349 -0.000000 0.000000
LeftFoot -9.148264 19.645512 -38.876638
LeftToeBase 10.950406 -0.000000 -0.000000
RightUpLeg -117.345704 0.787051 5.573367
RightLeg 0.291428 -0.000000 -0.000000
RightFoot 6.891440 6.884711 5.171171
RightToeBase -0.124338 -0.000000 0.000000
